#Comment line ignore any data following # character 
#Hierarchical Translation and Rotation (.htr) file 
[Header]	
#Header keywords are followed by a single value 
FileType HTR		#Single word string
DataType HTRS		#Translation followed by rotation and scale data
FileVersion 1		#integer
NumSegments 84		#integer
NumFrames 2		#integer
DataFrameRate 30		#integer, data frame rate in this file
EulerRotationOrder ZYX
CalibrationUnits mm
RotationUnits Degrees
GlobalAxisofGravity Y
BoneLengthAxis Y
ScaleFactor 1.00
[SegmentNames&Hierarchy]
#CHILD	PARENT
MASTER GLOBAL
root MASTER
chest root
L_mid_tent01 root
R_mid_tent01 root
spine01 root
Bip01_Neck chest
L_humerus chest
R_humerus chest
weapon_bone chest
Bip01_Head Bip01_Neck
eye_left_bone Bip01_Head
eye_right_bone Bip01_Head
L_forearm L_humerus
L_front_hand L_forearm
L_weapon_bone L_forearm
L_front_hand01_01 L_front_hand
L_front_hand02_01 L_front_hand
L_front_hand03_01 L_front_hand
L_front_hand01_02 L_front_hand01_01
L_front_hand02_02 L_front_hand02_01
L_front_hand03_02 L_front_hand03_01
R_forearm R_humerus
R_front_hand R_forearm
R_weapon_bone R_forearm
R_front_hand01_01 R_front_hand
R_front_hand02_01 R_front_hand
R_front_hand03_01 R_front_hand
R_front_hand01_02 R_front_hand01_01
R_front_hand02_02 R_front_hand02_01
R_front_hand03_02 R_front_hand03_01
null_rope01_connect L_mid_tent01
Rope1_Seg01 null_rope01_connect
Rope1_Seg02 Rope1_Seg01
Rope1_Seg03 Rope1_Seg02
Rope1_Seg04 Rope1_Seg03
Rope1_Seg05 Rope1_Seg04
Rope1_Seg06 Rope1_Seg05
Rope1_Seg07 Rope1_Seg06
Rope1_Seg09 Rope1_Seg07
L_mid_hand01 Rope1_Seg09
L_mid_hand02 Rope1_Seg09
L_mid_hand03 Rope1_Seg09
null_rope02_connect R_mid_tent01
Rope2_Seg01 null_rope02_connect
Rope2_Seg02 Rope2_Seg01
Rope2_Seg03 Rope2_Seg02
Rope2_Seg04 Rope2_Seg03
Rope2_Seg05 Rope2_Seg04
Rope2_Seg06 Rope2_Seg05
Rope2_Seg07 Rope2_Seg06
Rope2_Seg09 Rope2_Seg07
R_mid_hand01 Rope2_Seg09
R_mid_hand02 Rope2_Seg09
R_mid_hand03 Rope2_Seg09
spine02 spine01
spine03 spine02
pelvis spine03
null_rope03_connect pelvis
null_rope04_connect pelvis
Rope3_Seg01 null_rope03_connect
Rope3_Seg02 Rope3_Seg01
Rope3_Seg03 Rope3_Seg02
Rope3_Seg04 Rope3_Seg03
Rope3_Seg05 Rope3_Seg04
Rope3_Seg06 Rope3_Seg05
Rope3_Seg07 Rope3_Seg06
Rope3_Seg08 Rope3_Seg07
Rope3_Seg09 Rope3_Seg08
R_rear_hand01 Rope3_Seg09
R_rear_hand02 Rope3_Seg09
R_rear_hand03 Rope3_Seg09
Rope4_Seg01 null_rope04_connect
Rope4_Seg02 Rope4_Seg01
Rope4_Seg03 Rope4_Seg02
Rope4_Seg04 Rope4_Seg03
Rope4_Seg05 Rope4_Seg04
Rope4_Seg06 Rope4_Seg05
Rope4_Seg07 Rope4_Seg06
Rope4_Seg08 Rope4_Seg07
Rope4_Seg09 Rope4_Seg08
L_rear_hand01 Rope4_Seg09
L_rear_hand02 Rope4_Seg09
L_rear_hand03 Rope4_Seg09
[BasePosition]
#SegmentName Tx, Ty, Tz, Rx, Ry, Rz, BoneLength
MASTER 0.000000 0.000000 0.000000 -90.000000 0.000000 0.000000 10.000000 
root 0.000000 0.000000 0.000000 0.000000 0.000000 0.000000 10.000000 
chest 0.000000 0.000000 0.000000 0.000000 0.000000 0.000000 10.000000 
L_mid_tent01 0.000000 0.000000 0.000000 0.000000 0.000000 0.000000 10.000000 
R_mid_tent01 0.000000 0.000000 0.000000 0.000000 0.000000 0.000000 10.000000 
spine01 0.000000 0.000000 0.000000 0.000000 0.000000 0.000000 10.000000 
Bip01_Neck 0.000000 0.000000 0.000000 0.000000 0.000000 0.000000 10.000000 
L_humerus 0.000000 0.000000 0.000000 0.000000 0.000000 0.000000 10.000000 
R_humerus 0.000000 0.000000 0.000000 0.000000 0.000000 0.000000 10.000000 
weapon_bone 0.000000 0.000000 0.000000 0.000000 0.000000 0.000000 10.000000 
Bip01_Head 0.000000 0.000000 0.000000 0.000000 0.000000 0.000000 10.000000 
eye_left_bone 0.000000 0.000000 0.000000 0.000000 0.000000 0.000000 10.000000 
eye_right_bone 0.000000 0.000000 0.000000 0.000000 0.000000 0.000000 10.000000 
L_forearm 0.000000 0.000000 0.000000 0.000000 0.000000 0.000000 10.000000 
L_front_hand 0.000000 0.000000 0.000000 0.000000 0.000000 0.000000 10.000000 
L_weapon_bone 0.000000 0.000000 0.000000 0.000000 0.000000 0.000000 10.000000 
L_front_hand01_01 0.000000 0.000000 0.000000 0.000000 0.000000 0.000000 10.000000 
L_front_hand02_01 0.000000 0.000000 0.000000 0.000000 0.000000 0.000000 10.000000 
L_front_hand03_01 0.000000 0.000000 0.000000 0.000000 0.000000 0.000000 10.000000 
L_front_hand01_02 0.000000 0.000000 0.000000 0.000000 0.000000 0.000000 10.000000 
L_front_hand02_02 0.000000 0.000000 0.000000 0.000000 0.000000 0.000000 10.000000 
L_front_hand03_02 0.000000 0.000000 0.000000 0.000000 0.000000 0.000000 10.000000 
R_forearm 0.000000 0.000000 0.000000 0.000000 0.000000 0.000000 10.000000 
R_front_hand 0.000000 0.000000 0.000000 0.000000 0.000000 0.000000 10.000000 
R_weapon_bone 0.000000 0.000000 0.000000 0.000000 0.000000 0.000000 10.000000 
R_front_hand01_01 0.000000 0.000000 0.000000 0.000000 0.000000 0.000000 10.000000 
R_front_hand02_01 0.000000 0.000000 0.000000 0.000000 0.000000 0.000000 10.000000 
R_front_hand03_01 0.000000 0.000000 0.000000 0.000000 0.000000 0.000000 10.000000 
R_front_hand01_02 0.000000 0.000000 0.000000 0.000000 0.000000 0.000000 10.000000 
R_front_hand02_02 0.000000 0.000000 0.000000 0.000000 0.000000 0.000000 10.000000 
R_front_hand03_02 0.000000 0.000000 0.000000 0.000000 0.000000 0.000000 10.000000 
null_rope01_connect 0.000000 0.000000 0.000000 0.000000 0.000000 0.000000 10.000000 
Rope1_Seg01 0.000000 0.000000 0.000000 0.000000 0.000000 0.000000 10.000000 
Rope1_Seg02 0.000000 0.000000 0.000000 0.000000 0.000000 0.000000 10.000000 
Rope1_Seg03 0.000000 0.000000 0.000000 0.000000 0.000000 0.000000 10.000000 
Rope1_Seg04 0.000000 0.000000 0.000000 0.000000 0.000000 0.000000 10.000000 
Rope1_Seg05 0.000000 0.000000 0.000000 0.000000 0.000000 0.000000 10.000000 
Rope1_Seg06 0.000000 0.000000 0.000000 0.000000 0.000000 0.000000 10.000000 
Rope1_Seg07 0.000000 0.000000 0.000000 0.000000 0.000000 0.000000 10.000000 
Rope1_Seg09 0.000000 0.000000 0.000000 0.000000 0.000000 0.000000 10.000000 
L_mid_hand01 0.000000 0.000000 0.000000 0.000000 0.000000 0.000000 10.000000 
L_mid_hand02 0.000000 0.000000 0.000000 0.000000 0.000000 0.000000 10.000000 
L_mid_hand03 0.000000 0.000000 0.000000 0.000000 0.000000 0.000000 10.000000 
null_rope02_connect 0.000000 0.000000 0.000000 0.000000 0.000000 0.000000 10.000000 
Rope2_Seg01 0.000000 0.000000 0.000000 0.000000 0.000000 0.000000 10.000000 
Rope2_Seg02 0.000000 0.000000 0.000000 0.000000 0.000000 0.000000 10.000000 
Rope2_Seg03 0.000000 0.000000 0.000000 0.000000 0.000000 0.000000 10.000000 
Rope2_Seg04 0.000000 0.000000 0.000000 0.000000 0.000000 0.000000 10.000000 
Rope2_Seg05 0.000000 0.000000 0.000000 0.000000 0.000000 0.000000 10.000000 
Rope2_Seg06 0.000000 0.000000 0.000000 0.000000 0.000000 0.000000 10.000000 
Rope2_Seg07 0.000000 0.000000 0.000000 0.000000 0.000000 0.000000 10.000000 
Rope2_Seg09 0.000000 0.000000 0.000000 0.000000 0.000000 0.000000 10.000000 
R_mid_hand01 0.000000 0.000000 0.000000 0.000000 0.000000 0.000000 10.000000 
R_mid_hand02 0.000000 0.000000 0.000000 0.000000 0.000000 0.000000 10.000000 
R_mid_hand03 0.000000 0.000000 0.000000 0.000000 0.000000 0.000000 10.000000 
spine02 0.000000 0.000000 0.000000 0.000000 0.000000 0.000000 10.000000 
spine03 0.000000 0.000000 0.000000 0.000000 0.000000 0.000000 10.000000 
pelvis 0.000000 0.000000 0.000000 0.000000 0.000000 0.000000 10.000000 
null_rope03_connect 0.000000 0.000000 0.000000 0.000000 0.000000 0.000000 10.000000 
null_rope04_connect 0.000000 0.000000 0.000000 0.000000 0.000000 0.000000 10.000000 
Rope3_Seg01 0.000000 0.000000 0.000000 0.000000 0.000000 0.000000 10.000000 
Rope3_Seg02 0.000000 0.000000 0.000000 0.000000 0.000000 0.000000 10.000000 
Rope3_Seg03 0.000000 0.000000 0.000000 0.000000 0.000000 0.000000 10.000000 
Rope3_Seg04 0.000000 0.000000 0.000000 0.000000 0.000000 0.000000 10.000000 
Rope3_Seg05 0.000000 0.000000 0.000000 0.000000 0.000000 0.000000 10.000000 
Rope3_Seg06 0.000000 0.000000 0.000000 0.000000 0.000000 0.000000 10.000000 
Rope3_Seg07 0.000000 0.000000 0.000000 0.000000 0.000000 0.000000 10.000000 
Rope3_Seg08 0.000000 0.000000 0.000000 0.000000 0.000000 0.000000 10.000000 
Rope3_Seg09 0.000000 0.000000 0.000000 0.000000 0.000000 0.000000 10.000000 
R_rear_hand01 0.000000 0.000000 0.000000 0.000000 0.000000 0.000000 10.000000 
R_rear_hand02 0.000000 0.000000 0.000000 0.000000 0.000000 0.000000 10.000000 
R_rear_hand03 0.000000 0.000000 0.000000 0.000000 0.000000 0.000000 10.000000 
Rope4_Seg01 0.000000 0.000000 0.000000 0.000000 0.000000 0.000000 10.000000 
Rope4_Seg02 0.000000 0.000000 0.000000 0.000000 0.000000 0.000000 10.000000 
Rope4_Seg03 0.000000 0.000000 0.000000 0.000000 0.000000 0.000000 10.000000 
Rope4_Seg04 0.000000 0.000000 0.000000 0.000000 0.000000 0.000000 10.000000 
Rope4_Seg05 0.000000 0.000000 0.000000 0.000000 0.000000 0.000000 10.000000 
Rope4_Seg06 0.000000 0.000000 0.000000 0.000000 0.000000 0.000000 10.000000 
Rope4_Seg07 0.000000 0.000000 0.000000 0.000000 0.000000 0.000000 10.000000 
Rope4_Seg08 0.000000 0.000000 0.000000 0.000000 0.000000 0.000000 10.000000 
Rope4_Seg09 0.000000 0.000000 0.000000 0.000000 0.000000 0.000000 10.000000 
L_rear_hand01 0.000000 0.000000 0.000000 0.000000 0.000000 0.000000 10.000000 
L_rear_hand02 0.000000 0.000000 0.000000 0.000000 0.000000 0.000000 10.000000 
L_rear_hand03 0.000000 0.000000 0.000000 0.000000 0.000000 0.000000 10.000000 
#Beginning of Data. Separated by tabs
#Fr	Tx	Ty	Tz	Rx	Ry	Rz	SF
[MASTER]
11 0.000000 0.000000 0.000000 0.001660 0.001660 0.001660 0.000000
12 0.000000 0.000000 0.000000 0.001660 0.001660 0.001660 0.000000
[root]
11 -37.608742 -51.544910 3622.494141 -90.697945 -27.230749 -91.329910 3623.056152
12 -37.812325 -51.436146 3374.376953 -83.654892 -22.452202 -93.887924 3374.980713
[chest]
11 -84.512650 -34.090519 0.000000 -4.128778 -5.401077 155.183441 91.129311
12 -84.512650 -34.090519 0.000000 -2.290280 -3.885308 152.239136 91.129311
[L_mid_tent01]
11 27.299210 22.178806 -249.918488 2.507267 9.013493 79.387260 252.381454
12 27.299206 22.178823 -249.918488 2.278385 1.720694 78.963547 252.381454
[R_mid_tent01]
11 23.228794 24.509907 226.238495 165.348648 -14.579060 76.774452 228.744751
12 23.228794 24.509907 226.238495 165.866684 -4.851126 73.744812 228.744751
[spine01]
11 -0.361383 -0.195265 0.000000 0.002062 0.001122 32.879829 0.410763
12 -0.361383 -0.195265 0.000000 0.002062 0.001122 32.879829 0.410763
[Bip01_Neck]
11 165.484543 71.581718 0.000119 176.643677 -1.657967 43.431911 180.302734
12 165.484543 71.581718 0.000119 176.643677 -1.657967 43.431911 180.302734
[L_humerus]
11 -13.983130 -135.272980 -120.471481 124.275620 68.245331 -104.118752 181.680161
12 -13.983130 -135.272980 -120.471481 138.669769 61.211842 -88.257530 181.680161
[R_humerus]
11 -13.983309 -135.273102 125.287651 -172.993912 -9.514331 -96.510254 184.909012
12 -13.983309 -135.273102 125.287651 -173.743042 -8.342545 -94.721428 184.909012
[weapon_bone]
11 235.964890 -300.705902 0.000000 0.000000 -89.951546 -128.212341 382.234833
12 235.964890 -300.705902 0.000000 0.000000 -89.951546 -128.212341 382.234833
[Bip01_Head]
11 213.472595 185.636597 12.792790 32.006981 0.144734 -43.899757 283.187469
12 213.528305 185.481857 14.793924 31.897736 0.306532 -43.902184 283.225555
[eye_left_bone]
11 -24.626970 125.451866 -64.772606 0.000000 -90.000000 -99.840431 143.318359
12 -24.626970 125.451866 -64.772606 0.000000 -90.000000 -99.840431 143.318359
[eye_right_bone]
11 -24.626970 125.451866 64.327362 0.000000 -89.965736 80.156380 143.117676
12 -24.626970 125.451866 64.327362 0.000000 -89.965736 80.156380 143.117676
[L_forearm]
11 322.776093 0.000000 -0.000119 0.000144 -0.002343 -97.047806 322.776093
12 322.776093 0.000000 -0.000119 0.000137 -0.002343 -96.684242 322.776093
[L_front_hand]
11 241.149185 -0.042021 -3.300071 -178.590454 -1.775457 -29.914307 241.171753
12 241.149185 -0.042021 -3.300071 -178.600281 -1.783608 -29.548502 241.171753
[L_weapon_bone]
11 156.183838 0.000000 0.000000 0.000014 0.000007 0.000001 156.183838
12 156.183838 0.000000 0.000000 0.000014 0.000007 0.000001 156.183838
[L_front_hand01_01]
11 86.095154 20.947098 -0.655860 -0.366282 -0.477394 75.310593 88.609184
12 86.095154 20.947098 -0.655860 -0.366594 -0.477154 75.385574 88.609184
[L_front_hand02_01]
11 86.935165 -11.437475 24.513514 154.278549 -59.851875 -61.226555 91.046425
12 86.935165 -11.437475 24.513514 154.399811 -59.883842 -61.369598 91.046425
[L_front_hand03_01]
11 86.637497 -14.123976 -20.424902 -153.811539 58.084946 -62.579308 90.126129
12 86.637497 -14.123976 -20.424902 -153.913864 58.118134 -62.702885 90.126129
[L_front_hand01_02]
11 71.020905 -0.000179 0.000030 0.000329 -0.002324 -106.101395 71.020905
12 71.020905 -0.000179 0.000030 0.000330 -0.002324 -106.154007 71.020905
[L_front_hand02_02]
11 71.020927 -0.000119 0.000060 0.000329 -0.002324 -106.101395 71.020927
12 71.020927 -0.000119 0.000060 0.000330 -0.002324 -106.154007 71.020927
[L_front_hand03_02]
11 71.020905 -0.000060 0.000060 0.000329 -0.002324 -106.101395 71.020905
12 71.020905 -0.000060 0.000060 0.000330 -0.002324 -106.154007 71.020905
[R_forearm]
11 322.776428 -0.000060 0.000030 0.212719 0.018034 -95.319756 322.776428
12 322.776428 -0.000060 0.000030 0.212769 0.017437 -94.998177 322.776428
[R_front_hand]
11 238.847015 -0.006795 2.210259 -2.088863 -10.765998 -29.254448 238.857239
12 238.847015 -0.006795 2.210259 -2.167415 -10.750096 -28.823921 238.857239
[R_weapon_bone]
11 155.664093 0.002503 -0.000030 0.003487 0.001180 -90.988930 155.664078
12 155.664093 0.002503 -0.000030 0.003487 0.001180 -90.988930 155.664078
[R_front_hand01_01]
11 87.624611 14.231146 22.918642 -154.633499 -59.950619 61.746044 91.683487
12 87.624611 14.231146 22.918642 -154.633499 -59.950619 61.746044 91.683487
[R_front_hand02_01]
11 89.356956 14.367283 -19.491137 154.602661 58.302849 63.744389 92.579636
12 89.356956 14.367283 -19.491137 154.602661 58.302849 63.744389 92.579636
[R_front_hand03_01]
11 87.286232 -22.307278 -0.143439 0.162155 -0.423168 -75.767921 90.091743
12 87.286232 -22.307278 -0.143439 0.162155 -0.423168 -75.767921 90.091743
[R_front_hand01_02]
11 71.020905 0.000060 0.000119 0.002323 -0.000334 106.381714 71.020905
12 71.020905 0.000060 0.000119 0.002323 -0.000334 106.381714 71.020905
[R_front_hand02_02]
11 71.020844 -0.000030 -0.000119 0.002323 -0.000334 106.381714 71.020836
12 71.020844 -0.000030 -0.000119 0.002323 -0.000334 106.381714 71.020836
[R_front_hand03_02]
11 71.020905 0.000000 0.000030 0.002323 -0.000334 106.381714 71.020905
12 71.020905 0.000000 0.000030 0.002323 -0.000334 106.381714 71.020905
[null_rope01_connect]
11 328.732483 0.000000 -0.000238 -124.078377 -78.939323 162.078369 328.732483
12 328.732483 0.000000 -0.000238 -37.086632 -82.859962 70.658211 328.732483
[Rope1_Seg01]
11 -0.000038 -0.000114 0.000102 120.682724 17.767935 -176.041245 0.000158
12 -0.000038 -0.000114 0.000103 125.340950 25.235769 179.891144 0.000158
[Rope1_Seg02]
11 139.999863 -0.000179 0.000000 5.388890 -6.753395 -3.158759 139.999863
12 139.999863 -0.000179 0.000000 4.630441 -6.695976 -2.446128 139.999863
[Rope1_Seg03]
11 139.999924 0.000060 -0.000060 7.929243 -12.197003 -4.452054 139.999924
12 139.999924 0.000060 -0.000060 6.367373 -11.434928 -3.210338 139.999924
[Rope1_Seg04]
11 139.999924 -0.000060 -0.000119 11.890446 -25.832106 -8.341568 139.999924
12 139.999924 -0.000060 -0.000119 8.270904 -22.081264 -4.898777 139.999924
[Rope1_Seg05]
11 139.999832 0.000119 -0.000060 2.456232 -28.609259 -0.537885 139.999832
12 139.999832 0.000119 -0.000060 2.717943 -29.072298 -2.118811 139.999832
[Rope1_Seg06]
11 139.999954 0.000119 -0.000060 -0.158061 -5.059979 7.533892 139.999954
12 139.999954 0.000119 -0.000060 -1.250570 -10.694922 4.665265 139.999954
[Rope1_Seg07]
11 139.999985 0.000060 0.000000 -0.127912 -3.517913 3.895478 139.999985
12 139.999985 0.000060 0.000000 -0.399409 -4.558282 3.978049 139.999985
[Rope1_Seg09]
11 121.602913 0.000119 -0.000089 -89.793175 -1.359789 0.847147 121.602913
12 121.602913 0.000119 -0.000089 -89.793175 -1.359789 0.847147 121.602913
[L_mid_hand01]
11 103.859421 1.038730 8.195221 130.544373 -67.584534 -38.866943 104.187431
12 103.859421 1.038730 8.195221 130.544373 -67.584534 -38.866943 104.187431
[L_mid_hand02]
11 105.572853 -4.139662 -10.864139 -168.923172 43.409309 -73.498886 106.211075
12 105.572853 -4.139662 -10.864139 -168.923172 43.409309 -73.498886 106.211075
[L_mid_hand03]
11 104.641464 17.579376 -3.913581 -6.012626 17.808172 74.893661 106.179977
12 104.641464 17.579376 -3.913581 -6.012627 17.808174 74.893669 106.179977
[null_rope02_connect]
11 328.732849 0.000179 -0.000119 -91.942139 71.122993 45.816441 328.732849
12 328.732849 0.000179 -0.000119 -92.642067 77.459686 47.199547 328.732849
[Rope2_Seg01]
11 -0.000011 0.000104 0.000000 -73.457596 30.831564 -0.876085 0.000104
12 -0.000004 0.000104 0.000000 -60.099464 20.940357 3.760196 0.000104
[Rope2_Seg02]
11 139.999741 -0.000060 -0.000119 -11.206643 0.623003 11.284570 139.999756
12 139.999741 -0.000060 -0.000119 -8.185923 1.883490 8.289871 139.999756
[Rope2_Seg03]
11 140.000107 0.000030 0.000000 -11.664742 -2.312719 16.678431 140.000107
12 140.000107 0.000030 0.000000 -10.131558 1.004564 12.614939 140.000107
[Rope2_Seg04]
11 139.999802 0.000000 -0.000060 -8.634955 -6.723604 19.924196 139.999802
12 139.999802 0.000000 -0.000060 -10.704288 -0.978060 18.442156 139.999802
[Rope2_Seg05]
11 139.999985 -0.000060 0.000119 -3.342761 -7.781295 14.908787 139.999985
12 139.999985 -0.000060 0.000119 -6.279412 -6.041910 17.695250 139.999985
[Rope2_Seg06]
11 139.999893 -0.000030 -0.000119 -0.731752 -6.142846 10.212686 139.999893
12 139.999893 -0.000030 -0.000119 -2.039453 -7.647531 11.638884 139.999893
[Rope2_Seg07]
11 139.999893 0.000060 -0.000060 0.283861 -4.188935 7.053033 139.999893
12 139.999893 0.000060 -0.000060 -0.370837 -5.174922 8.447274 139.999893
[Rope2_Seg09]
11 121.338966 0.000089 -0.000060 33.793236 -1.359788 -0.847141 121.338966
12 121.338966 0.000089 -0.000060 33.793236 -1.359788 -0.847141 121.338966
[R_mid_hand01]
11 104.680779 11.144459 -10.335981 -16.212063 45.237247 70.462852 105.778534
12 104.680779 11.144459 -10.335981 -16.212063 45.237247 70.462852 105.778534
[R_mid_hand02]
11 104.070427 2.443552 8.231699 49.067368 -67.749771 39.286453 104.424065
12 104.070427 2.443552 8.231699 49.067368 -67.749771 39.286453 104.424065
[R_mid_hand03]
11 106.028137 -11.221827 -5.996406 -177.101105 15.551026 -76.585571 106.788818
12 106.028137 -11.221827 -5.996406 -177.101105 15.551026 -76.585571 106.788818
[spine02]
11 129.756927 0.001550 0.000119 -1.185866 -4.013186 9.079526 129.756927
12 129.756927 0.001550 0.000119 -1.176224 -3.994768 8.989582 129.756927
[spine03]
11 78.613838 0.083134 -4.898890 0.932743 4.416152 2.789828 78.766380
12 78.613853 0.083055 -4.898896 0.936801 4.377773 2.834192 78.766396
[pelvis]
11 169.435242 0.051022 0.000000 0.027333 -0.089700 -13.631122 169.435257
12 169.435242 0.051022 0.000000 0.028989 -0.104460 -13.516579 169.435257
[null_rope03_connect]
11 -1.257226 -2.466202 137.391083 -121.565201 -87.804298 -152.232712 137.418976
12 -1.257226 -2.466202 137.391083 -16.647083 -84.423988 98.192322 137.418976
[null_rope04_connect]
11 -1.259640 -2.480268 -137.844437 -121.565201 -87.804298 -152.232712 137.872513
12 -1.259640 -2.480268 -137.844437 -16.647083 -84.423988 98.192322 137.872513
[Rope3_Seg01]
11 -0.000010 -0.000012 0.000200 -138.104111 -28.675690 -65.051872 0.000201
12 -0.000011 -0.000009 0.000189 -139.731583 -35.473927 -66.328094 0.000190
[Rope3_Seg02]
11 139.999924 -0.000119 0.000060 -2.004927 0.450564 -8.343448 139.999924
12 139.999924 -0.000119 0.000060 -0.619095 -1.520571 -5.839056 139.999924
[Rope3_Seg03]
11 139.999924 -0.000119 0.000119 -3.073608 0.279897 -9.406703 139.999924
12 139.999924 -0.000119 0.000119 0.219897 -3.677147 -5.713067 139.999924
[Rope3_Seg04]
11 139.999924 0.000119 0.000000 -3.996177 -0.724051 -10.235737 139.999924
12 139.999924 0.000119 0.000000 1.468589 -5.978246 -6.333547 139.999924
[Rope3_Seg05]
11 139.999924 -0.000238 0.000060 -13.002806 7.903355 -10.966997 139.999924
12 139.999924 -0.000238 0.000060 -24.128242 14.931046 -19.655283 139.999924
[Rope3_Seg06]
11 139.999893 -0.000119 -0.000060 -8.829812 8.069379 -4.521684 139.999893
12 139.999893 -0.000119 -0.000060 -12.290056 12.672719 -6.214021 139.999893
[Rope3_Seg07]
11 139.999771 0.000060 -0.000119 -4.126420 4.248504 -2.370226 139.999771
12 139.999771 0.000060 -0.000119 -4.245759 5.780712 -2.001759 139.999771
[Rope3_Seg08]
11 139.999985 -0.000060 0.000000 -2.104195 2.611113 -1.223898 139.999985
12 139.999985 -0.000060 0.000000 -1.873855 3.272298 -0.873301 139.999985
[Rope3_Seg09]
11 90.185997 -0.000179 -0.000060 89.793228 -1.359877 -0.847183 90.185997
12 90.185997 -0.000179 -0.000060 89.793228 -1.359877 -0.847183 90.185997
[R_rear_hand01]
11 103.366196 -6.073594 -10.757982 -177.714203 24.565960 -73.910950 104.101845
12 103.366196 -6.073594 -10.757982 -177.714203 24.565960 -73.910950 104.101845
[R_rear_hand02]
11 100.509819 12.039542 -7.992327 -12.874829 36.868488 72.167213 101.543350
12 100.509819 12.039542 -7.992327 -12.874829 36.868488 72.167213 101.543350
[R_rear_hand03]
11 101.539970 5.215704 5.435467 71.484581 -71.816628 21.513813 101.819031
12 101.539970 5.215704 5.435467 71.484581 -71.816628 21.513813 101.819031
[Rope4_Seg01]
11 0.000016 -0.000038 -0.000453 62.091202 -29.314930 -127.047234 0.000454
12 0.000015 -0.000038 -0.000437 60.153027 -24.400990 -129.132019 0.000439
[Rope4_Seg02]
11 139.999985 0.000060 0.000119 -5.207267 -0.698471 -9.691886 139.999985
12 139.999985 0.000060 0.000119 -6.824264 -1.061354 -11.773014 139.999985
[Rope4_Seg03]
11 139.999924 0.000000 -0.000238 -9.727459 0.395781 -14.164391 139.999924
12 139.999924 0.000000 -0.000238 -10.804000 0.627174 -14.277227 139.999924
[Rope4_Seg04]
11 139.999985 0.000000 0.000119 -10.439240 3.845895 -12.177249 139.999985
12 139.999985 0.000000 0.000119 -8.221084 3.509302 -8.830799 139.999985
[Rope4_Seg05]
11 139.999802 -0.000060 -0.000119 -25.127869 7.884564 -28.337646 139.999802
12 139.999802 -0.000060 -0.000119 -17.430887 5.152105 -18.833239 139.999802
[Rope4_Seg06]
11 139.999924 0.000000 0.000060 -26.411671 21.199064 -31.724266 139.999924
12 139.999924 0.000000 0.000060 -30.253054 16.486782 -33.164780 139.999924
[Rope4_Seg07]
11 139.999802 0.000000 0.000000 -4.258114 11.522166 -7.351434 139.999802
12 139.999802 0.000000 0.000000 -8.568832 15.446182 -11.425836 139.999802
[Rope4_Seg08]
11 139.999924 0.000000 0.000119 -2.597147 5.175021 -2.819768 139.999924
12 139.999924 0.000000 0.000119 -3.453394 6.879561 -3.701101 139.999924
[Rope4_Seg09]
11 90.185791 0.000060 0.000060 -135.617828 2.228885 0.850567 90.185791
12 90.185791 0.000060 0.000060 -135.617828 2.228885 0.850567 90.185791
[L_rear_hand01]
11 101.696655 -8.392275 -7.654577 -12.874829 -36.868488 107.832764 102.329041
12 101.696655 -8.392275 -7.654577 -12.874829 -36.868488 107.832764 102.329041
[L_rear_hand02]
11 102.726799 -1.568258 5.773216 71.484581 71.816628 158.486160 102.900848
12 102.726799 -1.568258 5.773216 71.484581 71.816628 158.486160 102.900848
[L_rear_hand03]
11 104.552910 9.721220 -10.420293 -177.714203 -24.565960 -106.089035 105.519653
12 104.552910 9.721220 -10.420293 -177.714203 -24.565960 -106.089035 105.519653
